<svg version="1.1" id="Layer_1" xmlns="http://www.w3.org/2000/svg" xmlns:xlink="http://www.w3.org/1999/xlink" x="0px" y="0px"
	 width="100%" viewBox="0 0 1024 1024" enable-background="new 0 0 1024 1024" xml:space="preserve">
<path fill="#000000" opacity="1.000000" stroke="none" 
	d="
M558.386475,228.688477 
	C558.652344,233.716751 558.860168,238.365112 558.864075,243.013657 
	C558.911377,299.495636 558.848755,355.977844 558.988892,412.459564 
	C559.055420,439.275848 550.992676,462.858521 532.221313,482.375732 
	C485.036926,531.434998 400.551453,513.147400 377.843048,448.997681 
	C373.162842,435.776367 371.373749,422.212372 372.758057,408.258850 
	C374.585724,389.836426 391.017365,373.001556 410.291901,369.707947 
	C432.067200,365.987030 452.221405,376.400421 461.298218,396.062225 
	C470.283661,415.526123 465.009644,437.738037 448.060669,451.990997 
	C441.264832,457.705841 438.935730,464.803192 441.528595,473.433655 
	C444.246094,482.478729 452.656921,489.778992 461.601685,490.722107 
	C477.133606,492.359680 489.014526,481.345062 489.055389,464.964111 
	C489.140167,430.974762 488.988831,396.984802 489.097900,362.995605 
	C489.173767,339.343170 488.537903,315.687317 489.607025,292.037720 
	C491.002502,261.170074 512.899048,235.155731 543.325195,228.800400 
	C548.172424,227.787933 553.177368,225.503937 558.386475,228.688477 
z"/>
<path fill="#000000" opacity="1.000000" stroke="none" 
	d="
M648.817749,453.305115 
	C658.144897,468.340271 654.119080,483.466064 638.658630,492.671570 
	C611.041321,509.115448 583.473450,525.643005 555.791321,541.976990 
	C546.281982,547.588013 540.306335,555.326050 538.809937,566.424927 
	C537.817322,573.786926 540.164307,580.171997 543.929626,586.247803 
	C544.521362,587.202820 545.634216,587.907227 545.403931,589.283447 
	C544.443970,590.324097 543.552734,589.521301 542.741699,589.086731 
	C529.823181,582.165588 516.744446,575.520508 504.051056,568.207153 
	C481.525146,555.228882 481.426788,524.565735 503.708923,511.140289 
	C535.240234,492.142029 566.830017,473.240723 598.380859,454.274780 
	C610.604065,446.927185 612.388733,441.260406 606.686646,428.359436 
	C606.426208,427.770172 606.288879,427.126495 606.119446,426.588409 
	C607.382385,425.152344 608.356628,426.145752 609.278931,426.715210 
	C620.190613,433.452271 631.096313,440.198975 641.981262,446.979065 
	C644.545349,448.576233 646.734558,450.625549 648.817749,453.305115 
z"/>
<path fill="#000000" opacity="1.000000" stroke="none" 
	d="
M586.518677,411.574036 
	C579.836304,415.517181 573.460266,419.262207 567.259583,422.904236 
	C565.286743,420.878052 565.746521,419.122894 565.742432,417.529968 
	C565.699280,400.532806 565.787354,383.534851 565.643860,366.538788 
	C565.614929,363.114471 566.766418,361.070282 569.740479,359.341583 
	C579.821838,353.481628 589.766968,347.385773 599.727966,341.320709 
	C610.272888,334.900116 612.302185,328.259125 607.266907,316.997406 
	C606.873840,316.118286 606.149841,315.317627 606.622192,314.213715 
	C607.935730,313.287598 608.821350,314.417603 609.727417,314.973572 
	C620.375610,321.507416 631.067139,327.974579 641.609375,334.676117 
	C658.129883,345.177917 658.093933,368.392365 641.295532,378.801208 
	C623.314392,389.942963 604.996155,400.540710 586.518677,411.574036 
z"/>
<path fill="#000000" opacity="1.000000" stroke="none" 
	d="
M519.028503,231.041687 
	C511.844818,235.699265 505.641907,240.952927 500.128815,247.027939 
	C490.341431,257.812927 478.578094,263.115662 463.928253,259.358337 
	C447.180023,255.062820 437.330170,239.237076 439.698914,220.933701 
	C441.672699,205.682266 456.685303,192.673431 472.624359,192.918335 
	C481.556580,193.055603 489.758698,196.796463 498.137939,199.456497 
	C516.526062,205.293900 534.879272,211.241440 553.227539,217.203308 
	C554.352478,217.568832 556.014221,217.404373 556.404846,219.830673 
	C543.207642,220.709702 530.626526,223.732712 519.028503,231.041687 
z"/>
<path fill="#000000" opacity="1.000000" stroke="none" 
	d="
M611.548950,559.916626 
	C630.895691,559.017090 643.964417,568.028687 647.585571,584.877625 
	C650.292358,597.471313 646.847290,608.472656 636.905640,616.785889 
	C627.513733,624.639526 616.390686,627.121216 605.091858,622.252930 
	C587.499451,614.672852 571.128601,604.593140 554.299377,595.461487 
	C553.932678,595.262512 553.760559,594.705017 553.367981,594.122131 
	C554.062744,593.783630 554.619934,593.296082 555.206238,593.258301 
	C567.575317,592.459717 576.468323,585.510498 584.622864,577.008179 
	C592.062683,569.250977 600.092529,562.254639 611.548950,559.916626 
z"/>
<path fill="#000000" opacity="1.000000" stroke="none" 
	d="
M360.664429,684.241028 
	C361.786438,681.513733 358.873413,679.933594 359.269287,677.514038 
	C366.356293,673.855103 367.992889,674.247009 369.878082,681.360596 
	C370.994080,685.571655 373.876495,684.723938 376.494995,684.632690 
	C380.138763,684.505615 381.894928,685.774536 381.217285,689.565186 
	C380.655426,692.707947 378.081055,691.859009 376.064636,692.154114 
	C374.203796,692.426575 371.922272,691.383484 370.683960,693.707397 
	C369.089264,696.700134 370.863770,699.390381 374.466248,699.724731 
	C376.460785,699.909790 378.994995,698.814209 380.102020,701.616577 
	C381.376129,704.841980 379.698486,706.939331 375.517822,707.114197 
	C372.684540,707.232727 370.184174,707.166870 370.311798,711.236267 
	C370.437500,715.244263 373.136414,714.622620 375.563232,714.677063 
	C377.979736,714.731262 380.268982,714.607056 380.297638,718.164917 
	C380.324799,721.539612 378.341553,721.857971 375.768768,721.975891 
	C374.026733,722.055786 371.979218,721.518738 370.767395,723.436646 
	C369.018127,726.205078 370.776520,729.536987 374.115997,729.766724 
	C375.442688,729.857910 376.781311,729.811462 378.113434,729.780640 
	C380.588959,729.723389 382.265747,730.351074 382.317627,733.357483 
	C382.373505,736.596497 380.625275,737.282532 377.906189,737.261475 
	C371.241974,737.209839 364.577087,737.254822 357.912506,737.239685 
	C355.668945,737.234619 353.911438,737.291687 353.085938,740.239746 
	C352.069305,743.870178 348.639526,742.091797 346.230652,742.129883 
	C343.606293,742.171387 343.707428,739.921143 343.702301,738.098816 
	C343.671295,727.105225 343.686890,716.111450 343.686890,704.630005 
	C341.966827,704.950317 340.253082,705.961121 338.322815,703.291016 
	C339.435944,707.250427 340.195709,709.948914 340.953033,712.648071 
	C341.622803,715.035156 342.360474,717.244202 340.677338,719.749573 
	C339.409912,721.636230 340.778564,723.930664 341.216980,726.026428 
	C341.624237,727.973267 342.031738,729.928589 342.267212,731.900696 
	C342.541748,734.199890 341.160309,735.090454 339.078278,735.522827 
	C336.923981,735.970215 336.013489,734.994019 335.478455,733.128662 
	C334.758545,730.618530 333.947144,728.134644 332.705811,725.768188 
	C333.055939,728.843811 333.515320,731.912170 333.718781,734.997437 
	C333.860260,737.142273 333.285919,738.984009 330.585815,739.206726 
	C328.131744,739.409241 326.988861,738.448730 326.614838,735.929565 
	C326.142059,732.745544 325.222626,729.627930 324.219604,725.285828 
	C322.600891,730.660950 321.434265,734.770752 320.107849,738.828369 
	C319.541626,740.560547 318.878906,742.382080 316.270874,741.622192 
	C313.705658,740.874756 312.895416,739.530823 313.503815,736.813232 
	C314.300018,733.256592 314.657135,729.596924 315.114441,725.970459 
	C315.539093,722.602417 317.270020,721.441650 320.610321,722.130127 
	C325.815277,723.203003 330.638885,721.703125 335.458435,720.078735 
	C334.946167,716.699097 332.974335,717.270813 331.216461,717.678711 
	C327.327332,718.581177 323.463867,719.593811 319.585815,720.544861 
	C317.674591,721.013550 315.569366,721.996948 314.584412,719.183105 
	C313.719635,716.712585 312.336731,714.230957 315.156616,711.948059 
	C318.424072,709.302979 320.885101,705.983459 323.020050,701.629822 
	C318.779755,702.605591 314.645569,703.799744 314.058563,697.697693 
	C313.886993,695.914001 313.880524,694.528748 315.176239,693.143250 
	C318.872894,689.190369 321.239075,684.421509 323.256470,679.456604 
	C326.133636,672.375732 327.291107,672.007874 334.897980,675.880310 
	C333.202637,681.704102 328.931946,686.338806 326.504059,692.001160 
	C329.513184,692.981995 330.266235,690.982544 331.085510,689.506897 
	C336.004303,680.647705 334.916595,682.216187 344.259888,684.445190 
	C347.157318,681.593811 345.806183,676.089478 349.782318,674.384888 
	C351.842682,673.501587 354.870544,674.874939 357.293152,675.205872 
	C358.427612,678.679993 355.437988,680.846619 355.609650,683.627075 
	C357.116943,685.097656 358.789368,684.579407 360.664429,684.241028 
M353.766357,728.705566 
	C355.849426,730.292847 358.161285,730.408936 359.955109,728.648132 
	C361.283661,727.344055 361.005890,725.151306 360.317017,723.519470 
	C359.445190,721.454285 357.135345,721.730286 355.553925,722.018738 
	C351.766052,722.709473 353.856049,725.867126 353.766357,728.705566 
M353.766602,698.616821 
	C354.426270,699.528870 355.402283,699.659119 356.411713,699.648315 
	C358.053375,699.630798 359.959808,699.872437 360.444244,697.729004 
	C360.798584,696.161255 361.197357,694.317932 359.913330,693.010986 
	C358.632385,691.707092 356.735229,691.922485 355.221558,692.405151 
	C352.304962,693.335205 353.613098,695.909058 353.766602,698.616821 
M353.385193,709.788025 
	C353.551636,711.619568 352.554382,714.091125 355.505615,714.518066 
	C357.212097,714.764893 359.392426,715.276428 360.285431,713.106140 
	C360.963837,711.457397 361.412598,709.096130 359.826874,708.049377 
	C357.814728,706.721130 355.199951,706.118530 353.385193,709.788025 
M336.679596,696.858032 
	C336.272430,697.972534 334.629639,698.622131 335.505188,700.581116 
	C338.734985,697.322266 340.382080,693.453552 341.836792,689.464661 
	C340.244904,691.747253 338.653015,694.029846 336.679596,696.858032 
M331.015503,709.251831 
	C331.298889,708.142822 330.904022,706.871887 329.907227,706.924438 
	C327.964600,707.026611 327.108459,708.602783 326.426880,710.359802 
	C328.210907,710.791931 329.414948,710.237183 331.015503,709.251831 
z"/>
<path fill="#000000" opacity="1.000000" stroke="none" 
	d="
M442.847717,699.513184 
	C440.235229,699.377747 437.905243,699.324402 435.574982,699.291626 
	C433.818298,699.266907 432.269501,699.027527 431.724976,696.925537 
	C431.531525,696.178772 431.059357,695.332886 430.452209,694.900330 
	C429.208527,694.014465 426.870087,694.492432 426.822296,692.149719 
	C426.757904,688.996094 426.546082,685.791077 427.005920,682.698669 
	C427.359528,680.320984 429.821686,680.811096 431.570618,680.795166 
	C438.019470,680.736511 444.469238,680.771851 451.324890,680.771851 
	C451.067139,678.706055 450.892456,677.306030 450.742706,676.105896 
	C452.311340,674.309509 454.342316,674.644104 456.031067,674.068604 
	C458.680267,673.165649 460.806885,673.904907 461.105682,676.963562 
	C461.439575,680.381653 463.513580,680.824219 466.307495,680.787659 
	C472.300507,680.709106 478.298523,680.893433 484.288269,680.734863 
	C487.857910,680.640381 489.303558,681.892212 489.359100,685.625977 
	C489.496857,694.886353 486.368530,698.257874 474.838013,699.852600 
	C478.427521,703.923157 481.810425,707.672180 485.082581,711.515564 
	C486.293060,712.937378 488.325134,714.415222 485.880798,716.499573 
	C483.880981,718.204834 481.851013,718.986328 479.889069,716.484985 
	C475.590820,711.005127 470.073303,714.250366 465.026917,714.475342 
	C463.345703,714.550232 463.297668,716.245422 463.439697,717.629211 
	C463.616425,719.351379 464.877502,719.730713 466.303375,719.744629 
	C471.131195,719.791870 475.959656,719.834595 480.787415,719.807373 
	C483.380707,719.792725 485.337036,720.161682 485.339142,723.523682 
	C485.341248,726.848450 483.468597,727.315491 480.829407,727.280396 
	C476.501190,727.222778 472.170471,727.220032 467.842957,727.303711 
	C465.960602,727.340088 463.492279,726.763611 463.416992,729.875061 
	C463.333527,733.323669 466.013092,732.729126 468.057312,732.755554 
	C474.050446,732.833069 480.045624,732.843689 486.038910,732.779297 
	C488.833466,732.749268 490.410858,733.578247 490.346771,736.761536 
	C490.286194,739.768982 488.669922,740.324402 486.168671,740.319519 
	C467.520416,740.282898 448.872040,740.277222 430.223785,740.305359 
	C427.541687,740.309387 425.709930,739.719727 425.719696,736.478271 
	C425.729858,733.107178 427.827148,732.809265 430.373352,732.812317 
	C436.533844,732.819763 442.694489,732.798828 448.854858,732.758850 
	C450.731812,732.746704 452.686096,732.739563 452.717499,730.054260 
	C452.748749,727.378479 450.856293,727.292358 448.938507,727.282837 
	C444.276520,727.259766 439.614319,727.229980 434.952393,727.249756 
	C432.516296,727.260071 430.762512,726.760620 430.696228,723.725098 
	C430.625916,720.503357 432.360046,719.744141 435.079895,719.773010 
	C439.408417,719.818970 443.740204,719.879089 448.065521,719.755554 
	C449.867310,719.704102 452.639465,720.493225 452.519501,717.336060 
	C452.414398,714.569275 449.892029,715.292969 448.228210,715.359558 
	C444.745361,715.498901 441.269165,715.861084 437.797546,716.205750 
	C435.070618,716.476501 433.227539,715.605591 432.816742,712.679993 
	C432.456757,710.116760 431.445160,707.644043 435.085114,706.062988 
	C438.209076,704.706055 441.857239,703.487122 442.847717,699.513184 
M449.570465,692.086060 
	C457.706604,692.078857 465.844147,692.149658 473.977905,692.006470 
	C475.874481,691.973083 479.149384,693.145142 479.131134,689.961731 
	C479.115479,687.223328 476.017334,688.268677 474.234467,688.206055 
	C469.590759,688.043152 464.937897,688.138550 460.288666,688.138794 
	C453.480988,688.139099 446.673218,688.128540 439.865692,688.164490 
	C438.373077,688.172424 436.553925,688.153015 436.537415,690.236206 
	C436.518036,692.677063 438.423492,692.473267 440.143829,692.390869 
	C442.960480,692.255920 445.780121,692.182617 449.570465,692.086060 
M449.637421,705.979614 
	C455.359833,707.720581 461.049713,706.442932 467.114929,706.018921 
	C464.551971,704.145752 463.289124,702.233948 465.360077,699.729370 
	C458.410370,697.635681 454.643951,702.792725 449.637421,705.979614 
z"/>
<path fill="#000000" opacity="1.000000" stroke="none" 
	d="
M567.283325,711.016846 
	C564.396301,715.890625 560.963928,719.933289 557.183594,723.731689 
	C555.021484,725.904053 553.165894,726.982178 550.458740,724.436523 
	C547.641113,721.786987 549.497437,720.153198 551.280762,718.256042 
	C556.385315,712.825623 560.131470,706.609619 561.934753,699.319275 
	C562.122803,698.559204 562.081726,697.742432 562.158691,696.809692 
	C558.325684,695.767273 554.664612,696.250305 551.049683,696.329895 
	C547.754639,696.402405 548.247314,699.054871 548.240417,701.135986 
	C548.201721,712.796631 548.244080,724.457520 548.217896,736.118225 
	C548.204407,742.142639 547.485046,742.671509 541.601624,742.349365 
	C538.883240,742.200562 537.694946,741.131775 537.700439,738.415039 
	C537.731262,723.089355 537.733582,707.763428 537.682617,692.437744 
	C537.672913,689.525879 539.216614,688.730896 541.778992,688.753418 
	C547.109314,688.800232 552.442200,688.835571 557.770264,688.713379 
	C559.737915,688.668274 562.653992,689.556152 562.722351,686.179016 
	C562.798462,682.418152 559.660034,683.534607 557.545105,683.353271 
	C555.890930,683.211426 554.214417,683.270569 552.550232,683.319946 
	C550.074890,683.393250 548.331970,682.890137 548.476013,679.775940 
	C548.599915,677.099548 549.653442,675.795166 552.396973,675.819275 
	C557.893738,675.867554 563.392456,675.898193 568.887939,675.799683 
	C572.079895,675.742432 573.514221,677.118591 573.287292,680.299866 
	C573.216309,681.293945 573.391113,682.310913 573.271484,683.295288 
	C572.782349,687.322754 574.291443,689.068176 578.551758,688.816589 
	C583.532043,688.522522 588.546204,688.857361 593.539368,688.708008 
	C596.815552,688.610107 598.408264,689.593994 598.370239,693.215149 
	C598.230225,706.540710 598.382690,719.869080 598.276917,733.195251 
	C598.231079,738.966858 595.520264,741.716370 589.790588,742.226929 
	C587.971558,742.389038 586.127686,742.322266 584.296509,742.287231 
	C578.005920,742.166931 577.156677,741.179382 577.454224,734.420898 
	C580.430054,732.383484 584.866516,735.624023 587.145874,732.182861 
	C588.584656,730.010803 587.905334,727.051453 587.310669,723.847290 
	C582.582275,728.198486 579.823181,724.627930 576.954224,721.650452 
	C574.397644,718.997192 572.439819,715.901855 570.463379,712.806213 
	C569.848755,711.843445 569.773865,709.419678 567.283325,711.016846 
M573.942749,697.483521 
	C576.018616,707.483521 581.950928,717.038574 587.736755,719.363220 
	C587.736755,712.775757 587.721130,706.298035 587.745605,699.820557 
	C587.753784,697.662170 586.998901,696.218018 584.607788,696.303528 
	C581.155029,696.427124 577.649597,695.615540 573.942749,697.483521 
z"/>
<path fill="#000000" opacity="1.000000" stroke="none" 
	d="
M257.083344,717.991760 
	C257.095764,722.153198 257.066589,725.817322 257.140625,729.479370 
	C257.177673,731.312317 257.161530,733.527039 259.802460,733.373291 
	C262.070618,733.241150 262.487762,731.325256 262.699921,729.368958 
	C263.054413,726.100220 262.333740,722.719116 263.582367,719.550720 
	C270.819336,719.947021 272.852051,722.180664 272.250397,728.945557 
	C271.243378,740.268127 260.533142,745.842041 250.404831,740.329590 
	C247.352615,738.668335 246.657288,735.935974 246.669006,732.741394 
	C246.708084,722.084167 246.619827,711.426086 246.708847,700.769470 
	C246.735596,697.566833 246.399338,694.812988 242.279022,695.468079 
	C238.804901,696.020569 233.770554,692.854919 233.141052,700.259827 
	C231.807373,715.948120 225.653503,729.485474 213.089417,739.601013 
	C208.502457,743.294128 207.404480,743.146973 203.191513,737.869324 
	C216.014175,727.049866 222.565033,713.110229 223.008316,696.134949 
	C218.775848,694.803955 214.770676,695.605957 210.839844,695.414246 
	C208.620682,695.306030 206.915192,694.951538 206.852524,692.167542 
	C206.795013,689.613281 208.037094,688.504028 210.414658,688.394775 
	C213.239731,688.264771 216.070938,688.034546 218.892075,688.113342 
	C222.211197,688.205994 223.960144,687.018066 223.644165,683.474182 
	C223.526337,682.152649 223.726700,680.802673 223.609283,679.481079 
	C223.278046,675.753418 224.116211,673.561768 228.664276,673.633850 
	C232.995316,673.702515 233.424438,675.864929 233.402817,679.315735 
	C233.347748,688.108704 233.448273,688.109375 242.442886,688.116760 
	C257.039246,688.128784 257.041077,688.128723 257.070923,702.506409 
	C257.081299,707.502136 257.080231,712.497864 257.083344,717.991760 
z"/>
<path fill="#000000" opacity="1.000000" stroke="none" 
	d="
M704.987183,719.762939 
	C703.023926,722.861755 701.236084,725.627197 699.346008,728.550781 
	C702.287292,731.806458 706.326660,733.002625 710.010925,734.784790 
	C711.786926,735.643921 714.001892,736.185059 712.682617,739.033203 
	C711.580383,741.412842 710.140869,742.842041 707.237549,741.855347 
	C703.291077,740.513977 699.226685,739.302612 695.847961,736.879395 
	C692.765930,734.668945 690.321411,734.994385 687.278503,736.871826 
	C684.331177,738.690308 680.974060,739.840454 677.812012,741.316467 
	C675.067139,742.597656 672.642212,742.744263 671.235413,739.394836 
	C667.550903,743.137817 663.578552,743.036743 660.910095,739.337463 
	C658.852478,736.484924 655.866455,736.434753 654.588379,739.674927 
	C653.212402,743.162842 650.678650,742.189453 648.389954,742.035095 
	C645.599365,741.846985 645.738159,739.502380 645.725220,737.503113 
	C645.688538,731.846680 645.761536,726.189148 645.678955,720.533691 
	C645.641052,717.934082 646.434937,716.468323 649.334351,716.468262 
	C654.486389,716.468140 659.640137,716.323608 664.789917,716.144470 
	C668.710388,716.008057 670.574402,717.500610 670.317810,721.708679 
	C670.038513,726.288086 670.254395,730.897766 670.254395,736.001587 
	C675.923462,734.316101 680.354187,731.965149 684.274597,728.893066 
	C683.205078,722.437256 674.528687,719.494690 676.426758,711.471497 
	C676.786621,711.488953 676.166077,711.399902 675.553833,711.439636 
	C673.124390,711.597168 671.839905,710.665283 671.735413,708.055664 
	C671.624023,705.271484 672.939331,703.989319 675.540710,703.990784 
	C685.354004,703.996216 695.167358,704.058472 704.980469,704.134766 
	C707.532471,704.154602 708.229553,705.677490 708.356140,708.051331 
	C708.580444,712.256836 706.910095,715.831238 704.987183,719.762939 
M692.322510,721.291382 
	C695.224487,718.856201 696.891235,715.827759 697.090027,711.780151 
	C693.092529,711.268311 689.394836,710.931091 685.373108,712.237244 
	C687.036560,715.838196 688.630066,719.049744 692.322510,721.291382 
M655.966125,730.380676 
	C656.617737,730.431274 657.268555,730.500061 657.921082,730.529297 
	C660.782227,730.657288 661.043030,728.829102 660.908997,726.623718 
	C660.798462,724.804810 660.396729,723.427917 658.134521,723.388245 
	C655.347900,723.339294 654.934937,725.108887 654.863708,727.263855 
	C654.831360,728.243958 654.671692,729.242188 655.966125,730.380676 
z"/>
<path fill="#000000" opacity="1.000000" stroke="none" 
	d="
M792.754272,704.194946 
	C790.468628,704.162109 788.636353,704.164551 786.807007,704.090942 
	C784.123230,703.983093 783.647827,702.251343 783.704407,699.973816 
	C783.761719,697.667297 784.844543,696.634094 787.092896,696.691162 
	C787.425354,696.699646 787.758850,696.680725 788.091370,696.664673 
	C798.316345,696.171814 798.337891,696.171814 798.455505,685.791626 
	C798.478088,683.799377 798.260010,681.804260 798.148682,679.810669 
	C797.941833,676.108337 798.970825,673.892151 803.388733,673.843567 
	C807.989197,673.793152 808.530640,676.172119 808.376404,679.824646 
	C808.200867,683.979797 808.459656,688.152405 808.315308,692.309937 
	C808.202271,695.566528 809.596741,696.863770 812.777039,696.673645 
	C814.933716,696.544739 817.106628,696.713867 819.268860,696.643799 
	C821.865540,696.559631 823.316223,697.418884 823.304871,700.334045 
	C823.293945,703.183777 821.893005,704.025146 819.310120,704.207642 
	C815.891113,704.449280 811.532715,702.645630 809.276733,705.307373 
	C806.834106,708.189270 808.467651,712.674927 808.382996,716.448792 
	C808.218811,723.771729 808.180725,731.104858 808.384033,738.425598 
	C808.488037,742.170654 806.590149,742.967468 803.474548,742.899414 
	C800.516968,742.834717 798.399353,742.391296 798.490417,738.489990 
	C798.711792,729.004211 798.557739,719.509583 798.552490,710.018555 
	C798.550537,706.447876 797.708923,703.641602 792.754272,704.194946 
z"/>
<path fill="#000000" opacity="1.000000" stroke="none" 
	d="
M363.631897,802.687012 
	C364.697815,798.951477 365.737030,795.618103 366.645599,792.249451 
	C367.530914,788.967163 369.419434,787.964172 372.799561,789.374451 
	C373.160553,792.621643 371.517120,795.426453 370.661713,798.360535 
	C368.522278,805.699402 366.195343,812.983459 363.983582,820.301575 
	C363.227448,822.803467 362.404968,825.011719 359.099792,824.935486 
	C355.729706,824.857788 355.230682,822.470886 354.529907,819.997864 
	C352.782715,813.831726 350.930756,807.695251 348.820984,800.528259 
	C346.467773,807.782959 344.346954,814.022949 342.444611,820.328796 
	C341.653442,822.951294 340.673218,824.944214 337.503052,824.916748 
	C334.497711,824.890747 333.631226,822.820496 332.950073,820.486389 
	C330.343018,811.553589 327.725739,802.623596 325.138885,793.684937 
	C324.732880,792.282043 324.096466,790.862061 324.824188,789.379272 
	C331.629822,787.802429 332.303314,788.166931 334.088409,794.360779 
	C335.636566,799.732422 337.185242,805.104004 339.018188,811.462585 
	C342.263733,804.964844 343.420654,798.942810 345.274811,793.179138 
	C346.179840,790.365906 347.220093,788.508728 350.672607,788.568665 
	C354.092743,788.628113 354.668427,790.816284 355.366211,793.301636 
	C356.971497,799.019104 358.659698,804.713257 360.448822,810.880737 
	C362.621521,808.261902 362.479553,805.430725 363.631897,802.687012 
z"/>
<path fill="#000000" opacity="1.000000" stroke="none" 
	d="
M664.631958,700.369263 
	C659.348999,700.361206 654.520264,700.339722 649.691711,700.352661 
	C647.424683,700.358765 645.803406,699.789062 645.788513,697.042542 
	C645.773438,694.273315 647.425903,693.721619 649.678528,693.723816 
	C655.339600,693.729309 661.000671,693.729675 666.661743,693.713135 
	C668.588806,693.707458 670.361145,693.954346 670.887573,696.411438 
	C675.054138,694.146118 675.822632,690.692444 675.962280,686.924805 
	C676.042419,684.762756 676.057922,682.598328 676.139465,680.436340 
	C676.231140,678.005798 677.517090,676.838135 679.955017,676.843994 
	C686.781433,676.860352 693.607910,676.865784 700.434204,676.835571 
	C703.122681,676.823669 704.405579,678.018738 704.321350,680.771667 
	C704.240051,683.432922 704.408142,686.102051 704.314331,688.762451 
	C704.197754,692.070251 705.372131,693.905884 708.984070,693.398071 
	C711.058899,693.106384 713.304138,692.824463 713.119324,695.950867 
	C712.973022,698.425781 712.818909,701.149109 709.269836,701.293823 
	C708.271851,701.334534 707.272522,701.382385 706.278870,701.478943 
	C696.216187,702.456238 694.774658,701.085815 694.639648,690.828796 
	C694.601685,687.946228 695.953674,684.073425 690.521118,684.265625 
	C687.725586,684.364441 686.259094,685.082520 685.992798,688.139465 
	C685.489197,693.917664 682.858765,698.593506 677.874084,701.787109 
	C676.588745,702.610474 675.002869,703.692749 673.833923,702.255676 
	C671.318298,699.163147 668.079102,700.577087 664.631958,700.369263 
z"/>
<path fill="#000000" opacity="1.000000" stroke="none" 
	d="
M457.071991,788.636536 
	C459.881226,788.639465 462.206268,788.628906 464.531006,788.648682 
	C475.121796,788.738586 480.592010,794.049866 481.237915,804.858154 
	C481.909027,816.088196 476.758972,823.316589 466.844147,824.498962 
	C462.416779,825.026978 457.901886,824.819885 453.426849,824.950562 
	C450.252563,825.043152 449.004181,823.436646 449.029205,820.346680 
	C449.100433,811.545959 449.310181,802.734497 448.972687,793.946289 
	C448.730225,787.632935 452.864044,788.683289 457.071991,788.636536 
M472.208710,801.537537 
	C471.259796,797.276062 469.042145,794.286926 464.444183,793.505310 
	C458.581451,792.508728 457.346191,793.503357 457.326782,799.489136 
	C457.312195,803.988586 457.313568,808.488098 457.321899,812.987610 
	C457.334106,819.586853 461.008453,821.752380 467.122437,818.830627 
	C469.391785,817.746094 470.669525,815.909058 471.550354,813.665161 
	C473.000488,809.971191 472.817139,806.159180 472.208710,801.537537 
z"/>
<path fill="#000000" opacity="1.000000" stroke="none" 
	d="
M679.911499,809.245972 
	C679.918335,810.371765 679.920471,811.037781 679.921631,811.703735 
	C679.938660,821.522949 676.625732,824.942627 666.745178,825.304932 
	C657.276672,825.652100 651.134216,822.444092 648.172485,815.604919 
	C644.891846,808.029663 646.491638,797.970703 651.811707,792.722046 
	C657.095276,787.509338 666.732910,786.190613 674.241699,789.652771 
	C679.214050,791.945435 679.764221,793.967468 676.425171,798.379517 
	C675.784363,797.901489 675.036743,797.515991 674.517578,796.928650 
	C671.000793,792.949280 666.488037,791.883972 661.821777,793.736694 
	C656.995667,795.652771 655.366516,800.063232 655.158752,805.093445 
	C654.749023,815.014893 658.881287,820.273987 666.896179,819.914551 
	C669.679382,819.789673 671.918579,819.197327 671.664551,815.693054 
	C671.453186,812.777832 672.922180,808.867004 667.548889,809.133179 
	C665.774353,809.221069 664.050232,808.722778 664.063477,806.503967 
	C664.078674,803.944946 666.073853,803.809937 667.977600,803.778503 
	C670.141479,803.742737 672.316956,803.892090 674.468201,803.720703 
	C678.219727,803.421631 680.209961,804.824036 679.911499,809.245972 
z"/>
<path fill="#000000" opacity="1.000000" stroke="none" 
	d="
M737.332275,796.086792 
	C737.335449,804.071228 737.402710,811.567261 737.292603,819.060669 
	C737.263489,821.040894 738.322632,823.700317 735.400330,824.622986 
	C732.522095,825.531677 730.280823,824.347656 728.434937,822.018433 
	C723.987366,816.406372 719.449524,810.865723 714.935791,805.306274 
	C714.109802,804.288940 713.225708,803.318787 711.313416,801.106140 
	C711.313416,808.120056 711.400391,813.801941 711.265137,819.478516 
	C711.219299,821.404968 712.305542,824.329346 708.928711,824.557678 
	C705.348022,824.799805 705.748596,821.899597 705.737122,819.618896 
	C705.693665,810.958130 705.676453,802.296875 705.740051,793.636414 
	C705.752625,791.923401 705.091003,789.625488 707.464417,788.946777 
	C709.942627,788.238098 712.364624,788.424744 714.215698,790.781433 
	C718.535706,796.281311 722.949768,801.707458 727.338074,807.153442 
	C728.479065,808.569397 729.665649,809.948608 731.776794,812.477234 
	C731.776794,805.718201 731.762085,800.206116 731.787476,794.694153 
	C731.793579,793.367310 731.805786,792.018005 732.042664,790.720520 
	C732.336975,789.108765 733.584961,788.726074 735.067932,788.832336 
	C736.494507,788.934631 737.127075,789.796082 737.206055,791.104736 
	C737.296265,792.599365 737.292847,794.099609 737.332275,796.086792 
z"/>
<path fill="#000000" opacity="1.000000" stroke="none" 
	d="
M765.195923,740.132202 
	C758.872864,743.888611 756.025146,742.364380 755.983032,735.602722 
	C755.951965,730.606628 756.046997,725.609497 755.989807,720.613892 
	C755.951233,717.236694 757.516602,715.818115 760.867126,715.878479 
	C766.694641,715.983582 772.526672,715.997070 778.353821,715.887451 
	C781.578430,715.826843 782.926758,717.330566 782.869263,720.393738 
	C782.766174,725.884460 782.670593,731.375305 782.542725,736.865479 
	C782.501892,738.619141 783.077576,740.975403 780.438843,741.157898 
	C778.159485,741.315491 775.596985,742.355103 773.707092,739.615479 
	C771.288513,736.109436 767.886169,736.276611 765.195923,740.132202 
M765.366394,726.523682 
	C765.458313,731.247192 768.913269,730.032043 771.489990,729.756470 
	C774.069458,729.480652 773.596497,727.220764 773.510925,725.439697 
	C773.432312,723.803345 772.330627,723.059143 770.846436,723.133789 
	C768.713257,723.241150 765.920532,722.176025 765.366394,726.523682 
z"/>
<path fill="#000000" opacity="1.000000" stroke="none" 
	d="
M580.673950,824.180969 
	C573.945923,826.161133 567.781494,825.771179 561.865479,822.767700 
	C557.200134,820.399170 556.969482,819.090576 560.372925,814.140320 
	C562.878906,816.443909 564.792725,819.504089 568.503723,820.197571 
	C570.841492,820.634399 573.113708,820.979248 575.370728,820.125000 
	C577.590576,819.284851 579.790283,818.282654 579.833008,815.401062 
	C579.871826,812.775024 577.979553,811.591614 575.904602,810.799011 
	C572.489258,809.494324 568.937805,808.530518 565.568726,807.123596 
	C561.267090,805.327271 558.313110,802.367737 558.722412,797.236572 
	C559.115051,792.316223 562.519592,790.130493 566.679016,788.711853 
	C572.015076,786.891907 577.209106,787.488159 582.170288,789.964233 
	C586.339600,792.045166 586.573792,793.220703 584.164368,797.745117 
	C582.338196,797.910889 581.840515,796.115112 580.682434,795.304626 
	C577.714294,793.227051 574.631348,791.824341 570.909485,793.066467 
	C569.069397,793.680481 567.511047,794.584961 567.356995,796.748779 
	C567.214844,798.745483 568.616394,799.842896 570.171692,800.470276 
	C573.404968,801.774536 576.748108,802.803345 580.014648,804.028931 
	C584.402283,805.674988 588.159058,807.838074 588.375061,813.356995 
	C588.589233,818.825806 585.800110,822.062561 580.673950,824.180969 
z"/>
<path fill="#000000" opacity="1.000000" stroke="none" 
	d="
M506.591675,795.435669 
	C505.713257,790.014832 507.598480,788.136963 512.772339,788.533997 
	C518.556641,788.977966 524.400940,788.611755 530.218384,788.670532 
	C531.821655,788.686768 533.826599,788.465271 533.904602,790.910095 
	C533.982666,793.354736 532.055969,793.308655 530.389526,793.331970 
	C526.400696,793.387756 522.406433,793.492493 518.422546,793.348938 
	C513.986572,793.189148 514.447693,796.173950 514.331726,799.062500 
	C514.213135,802.014160 514.841614,803.886047 518.377747,803.713562 
	C522.025269,803.535645 525.689758,803.679504 529.346313,803.725403 
	C530.873657,803.744568 532.531433,803.815002 532.622498,805.893738 
	C532.729919,808.345764 530.852783,808.338745 529.167236,808.361145 
	C525.677063,808.407471 522.178894,808.530884 518.696899,808.359741 
	C514.020996,808.129883 514.383972,811.221741 514.333435,814.331848 
	C514.283264,817.426147 514.329956,820.016113 518.643005,819.737915 
	C522.449829,819.492432 526.286865,819.661072 530.108948,819.731384 
	C531.903564,819.764404 534.078003,819.577759 534.076477,822.281067 
	C534.075134,824.574463 532.155151,824.819580 530.507202,824.846924 
	C523.693970,824.960083 516.878540,824.951843 510.063965,824.978271 
	C507.251953,824.989197 506.470337,823.488525 506.515381,820.819092 
	C506.655609,812.509888 506.581787,804.197021 506.591675,795.435669 
z"/>
<path fill="#000000" opacity="1.000000" stroke="none" 
	d="
M418.522522,794.565186 
	C419.883362,790.923523 420.795471,787.157410 426.283783,789.679443 
	C423.169983,797.644470 420.104889,805.515015 417.014099,813.375488 
	C415.856659,816.319092 414.596008,819.222534 413.464600,822.175781 
	C412.687988,824.202759 411.167725,824.892090 409.163300,824.899780 
	C407.353424,824.906677 405.819366,824.322693 405.136688,822.538513 
	C400.985168,811.688171 396.878418,800.820618 392.762177,789.973145 
	C399.217621,787.428162 400.808167,788.068970 402.907074,793.810730 
	C405.297577,800.350403 407.618988,806.915344 410.476501,814.879761 
	C413.453583,807.382812 415.924835,801.159729 418.522522,794.565186 
z"/>
<path fill="#000000" opacity="1.000000" stroke="none" 
	d="
M292.701355,796.084595 
	C293.043182,793.403625 291.754883,790.746521 294.080566,789.125610 
	C297.026154,787.072510 301.062347,789.146667 301.104279,792.780640 
	C301.209686,801.921448 301.363953,811.072815 301.041626,820.203857 
	C300.765625,828.022827 296.278595,832.287903 289.106049,832.009155 
	C295.674042,820.671265 291.562836,808.384521 292.701355,796.084595 
z"/>
<path fill="#000000" opacity="1.000000" stroke="none" 
	d="
M766.056641,674.851624 
	C770.117371,673.724854 772.127136,675.016968 772.484802,678.923950 
	C772.842834,682.835754 775.131836,684.294006 778.927307,683.705444 
	C779.734741,683.580261 780.581482,683.728271 781.409302,683.711304 
	C783.593018,683.666626 784.832825,684.603577 784.941772,686.895813 
	C785.056702,689.315186 784.005432,690.806030 781.554993,690.811768 
	C773.440857,690.830872 765.325989,690.771240 757.212463,690.658875 
	C754.861450,690.626282 753.661255,689.425537 753.735657,686.872742 
	C753.817932,684.048950 755.568542,683.812622 757.731567,683.679871 
	C759.806030,683.552429 762.015747,684.262695 763.902893,682.998474 
	C764.927979,680.309326 758.866577,676.194580 766.056641,674.851624 
z"/>
<path fill="#000000" opacity="1.000000" stroke="none" 
	d="
M621.293823,798.044495 
	C621.285767,805.828918 621.190308,813.119934 621.309998,820.407288 
	C621.362610,823.610046 620.012695,824.926392 616.900330,824.900696 
	C613.923462,824.876160 612.810669,823.384949 612.823914,820.550171 
	C612.866394,811.438538 612.866638,802.326233 612.799561,793.214905 
	C612.777771,790.250183 613.647522,788.610535 617.029907,788.585938 
	C620.359680,788.561768 621.483948,790.004333 621.293762,793.077515 
	C621.201904,794.562500 621.288208,796.058533 621.293823,798.044495 
z"/>
<path fill="#000000" opacity="1.000000" stroke="none" 
	d="
M658.995056,689.277161 
	C655.011597,689.274292 651.525574,689.251404 648.039856,689.275269 
	C645.616333,689.291870 643.817261,688.762634 643.754272,685.764038 
	C643.692261,682.807861 645.375122,682.090576 647.841736,682.029297 
	C649.317078,681.992615 650.790100,681.861755 652.186096,681.777893 
	C653.341797,679.808289 650.907043,678.672791 651.461792,676.986816 
	C657.599915,672.937256 658.553406,673.107666 661.575623,679.527222 
	C662.903015,682.346680 665.269714,681.895264 667.521057,681.965637 
	C670.226257,682.050171 672.464600,682.340820 672.340027,686.000244 
	C672.216919,689.617920 669.767090,689.246155 667.460327,689.276245 
	C664.804871,689.310913 662.148560,689.279724 658.995056,689.277161 
z"/>
<path fill="#000000" opacity="1.000000" stroke="none" 
	d="
M775.845581,694.703857 
	C777.320007,694.708435 778.318665,694.744080 779.315369,694.713257 
	C781.566772,694.643738 782.738281,695.560852 782.595825,697.963806 
	C782.467285,700.130920 781.612854,701.344421 779.256592,701.325867 
	C772.604858,701.273376 765.952515,701.291260 759.300415,701.300720 
	C757.074951,701.303894 755.878906,700.327026 755.915649,698.009583 
	C755.952332,695.695740 757.231079,694.753540 759.403748,694.747498 
	C764.725464,694.732666 770.047180,694.718933 775.845581,694.703857 
z"/>
<path fill="#000000" opacity="1.000000" stroke="none" 
	d="
M759.340088,704.772461 
	C765.946228,704.740967 772.086670,704.765137 778.226440,704.714844 
	C780.624390,704.695251 782.495789,705.067505 782.601135,708.082642 
	C782.715515,711.358154 780.551147,711.346863 778.284180,711.343201 
	C772.144043,711.333191 766.003784,711.343689 759.863708,711.321777 
	C758.169189,711.315735 756.396912,711.271790 756.045776,709.058411 
	C755.691772,706.827332 756.184937,705.057556 759.340088,704.772461 
z"/>
<path fill="#000000" opacity="1.000000" stroke="none" 
	d="
M645.788574,707.807373 
	C646.042053,705.162476 647.644348,704.827026 649.412659,704.817139 
	C655.073486,704.785339 660.734497,704.767212 666.395325,704.787842 
	C668.641968,704.796021 670.253723,705.520020 670.289673,708.218323 
	C670.325073,710.876343 668.813660,711.802612 666.538391,711.787659 
	C660.549744,711.748474 654.561951,711.590942 648.573547,711.495728 
	C646.393860,711.461060 645.700317,710.187988 645.788574,707.807373 
z"/>
</svg>